<svg width="16" height="18" viewBox="0 0 16 18" fill="none" xmlns="http://www.w3.org/2000/svg">
<path fill-rule="evenodd" clip-rule="evenodd" d="M8.70711 0.455931C9.09763 0.874387 9.09763 1.55284 8.70711 1.97129L3.41427 7.64268H15C15.5523 7.64268 16 8.12241 16 8.7142C16 9.30598 15.5523 9.78572 15 9.78572H3.41415L8.70711 15.4572C9.09763 15.8757 9.09763 16.5541 8.70711 16.9726C8.31658 17.3911 7.68342 17.3911 7.29289 16.9726L0.292893 9.47194C0.190136 9.36184 0.114416 9.23373 0.0657349 9.09709C0.0243092 8.98111 0.00115395 8.85544 4.19617e-05 8.72412C1.43051e-05 8.72082 0 8.71751 0 8.7142C0 8.71314 1.90735e-06 8.71208 4.76837e-06 8.71102C0.000430107 8.55417 0.0323029 8.40526 0.0892248 8.27113C0.125299 8.18596 0.172313 8.10482 0.230265 8.03013C0.252066 8.002 0.275185 7.97508 0.29952 7.94948L7.29289 0.455931C7.68342 0.037476 8.31658 0.037476 8.70711 0.455931Z" fill="white"/>
</svg>
